<?xml version="1.0" encoding="utf-8" standalone="no"?>
<!DOCTYPE svg PUBLIC "-//W3C//DTD SVG 1.1//EN"
  "http://www.w3.org/Graphics/SVG/1.1/DTD/svg11.dtd">
<svg xmlns:xlink="http://www.w3.org/1999/xlink" width="1152pt" height="1152pt" viewBox="0 0 1152 1152" xmlns="http://www.w3.org/2000/svg" version="1.1">
 <metadata>
  <rdf:RDF xmlns:dc="http://purl.org/dc/elements/1.1/" xmlns:cc="http://creativecommons.org/ns#" xmlns:rdf="http://www.w3.org/1999/02/22-rdf-syntax-ns#">
   <cc:Work>
    <dc:type rdf:resource="http://purl.org/dc/dcmitype/StillImage"/>
    <dc:date>2026-06-24T03:51:59.240007</dc:date>
    <dc:format>image/svg+xml</dc:format>
    <dc:creator>
     <cc:Agent>
      <dc:title>Matplotlib v3.10.7, https://matplotlib.org/</dc:title>
     </cc:Agent>
    </dc:creator>
   </cc:Work>
  </rdf:RDF>
 </metadata>
 <defs>
  <style type="text/css">*{stroke-linejoin: round; stroke-linecap: butt}</style>
 </defs>
 <g id="figure_1">
  <g id="patch_1">
   <path d="M 0 1152 
L 1152 1152 
L 1152 0 
L 0 0 
L 0 1152 
z
" style="fill: none"/>
  </g>
  <g id="axes_1">
   <g id="line2d_1">
    <path d="M 803.749493 487.037797 
L 795.400778 491.761111 
L 787.140556 496.568384 
L 778.968826 501.459615 
L 770.885589 506.434804 
L 762.890844 511.493951 
L 754.984592 516.637057 
L 747.166833 521.864121 
L 739.437566 527.175143 
L 731.796792 532.570123 
L 724.24451 538.049062 
L 716.780721 543.611959 
L 709.405425 549.258814 
L 702.118621 554.989627 
L 694.920309 560.804399 
L 687.810491 566.703128 
L 680.789165 572.685816 
L 673.856331 578.752463 
L 667.01199 584.903067 
L 660.256142 591.13763 
L 653.588786 597.456151 
L 647.009923 603.85863 
L 640.519553 610.345068 
L 634.117675 616.915463 
L 627.804289 623.569817 
L 621.579397 630.308129 
L 615.442996 637.1304 
L 609.395089 644.036628 
L 603.435674 651.026815 
L 597.564752 658.100961 
L 591.782322 665.259064 
L 586.088385 672.501126 
L 580.48294 679.827145 
L 574.965988 687.237123 
L 569.537529 694.73106 
L 564.197562 702.308954 
L 558.946088 709.970807 
L 553.783106 717.716618 
L 548.708617 725.546388 
L 543.722621 733.460115 
L 538.825117 741.457801 
L 534.016106 749.539445 
L 529.295587 757.705047 
L 524.663561 765.954608 
L 520.120028 774.288127 
L 515.664987 782.705604 
L 511.298439 791.207039 
L 507.020383 799.792432 
" clip-path="url(#pdf4669eb6f)" style="fill: none; stroke: #b370b0; stroke-opacity: 0.8; stroke-width: 3; stroke-linecap: round"/>
   </g>
   <g id="PathCollection_1">
    <path d="M 803.749493 519.587797 
C 812.381854 519.587797 820.661818 516.158124 826.765819 510.054123 
C 832.86982 503.950122 836.299493 495.670158 836.299493 487.037797 
C 836.299493 478.405436 832.86982 470.125472 826.765819 464.021471 
C 820.661818 457.91747 812.381854 454.487797 803.749493 454.487797 
C 795.117132 454.487797 786.837168 457.91747 780.733168 464.021471 
C 774.629167 470.125472 771.199493 478.405436 771.199493 487.037797 
C 771.199493 495.670158 774.629167 503.950122 780.733168 510.054123 
C 786.837168 516.158124 795.117132 519.587797 803.749493 519.587797 
z
" clip-path="url(#pdf4669eb6f)" style="fill: #262536"/>
   </g>
   <g id="PathCollection_2">
    <path d="M 507.020383 832.342432 
C 515.652744 832.342432 523.932708 828.912759 530.036709 822.808758 
C 536.14071 816.704757 539.570383 808.424793 539.570383 799.792432 
C 539.570383 791.160071 536.14071 782.880107 530.036709 776.776107 
C 523.932708 770.672106 515.652744 767.242432 507.020383 767.242432 
C 498.388022 767.242432 490.108058 770.672106 484.004057 776.776107 
C 477.900056 782.880107 474.470383 791.160071 474.470383 799.792432 
C 474.470383 808.424793 477.900056 816.704757 484.004057 822.808758 
C 490.108058 828.912759 498.388022 832.342432 507.020383 832.342432 
z
" clip-path="url(#pdf4669eb6f)" style="fill: #262536"/>
   </g>
   <g id="PathCollection_3">
    <path d="M 421.057425 440.624527 
C 426.236842 440.624527 431.20482 438.566723 434.867221 434.904322 
C 438.529621 431.241921 440.587425 426.273943 440.587425 421.094527 
C 440.587425 415.91511 438.529621 410.947132 434.867221 407.284731 
C 431.20482 403.622331 426.236842 401.564527 421.057425 401.564527 
C 415.878009 401.564527 410.91003 403.622331 407.24763 407.284731 
C 403.585229 410.947132 401.527425 415.91511 401.527425 421.094527 
C 401.527425 426.273943 403.585229 431.241921 407.24763 434.904322 
C 410.91003 438.566723 415.878009 440.624527 421.057425 440.624527 
z
" clip-path="url(#pdf4669eb6f)" style="fill: #5b5965"/>
   </g>
   <g id="text_1">
    <!-- Sancho,  -->
    <g transform="translate(840.088045 476.843389) rotate(-23.940106) scale(0.18 -0.18)">
     <defs>
      <path id="PlayfairDisplay-Regular-53" d="M 1638 4602 
Q 1958 4602 2124 4528 
Q 2291 4454 2419 4365 
Q 2496 4320 2544 4297 
Q 2592 4275 2637 4275 
Q 2701 4275 2729 4345 
Q 2758 4416 2778 4557 
L 2925 4557 
Q 2918 4448 2908 4297 
Q 2899 4147 2896 3900 
Q 2893 3654 2893 3251 
L 2746 3251 
Q 2726 3558 2611 3840 
Q 2496 4122 2275 4301 
Q 2054 4480 1696 4480 
Q 1357 4480 1136 4275 
Q 915 4070 915 3738 
Q 915 3450 1062 3254 
Q 1210 3059 1456 2902 
Q 1702 2746 1990 2566 
Q 2323 2362 2582 2160 
Q 2842 1958 2992 1715 
Q 3142 1472 3142 1126 
Q 3142 717 2956 448 
Q 2771 179 2464 44 
Q 2157 -90 1786 -90 
Q 1446 -90 1248 -13 
Q 1050 64 909 147 
Q 768 237 691 237 
Q 627 237 598 166 
Q 570 96 550 -45 
L 403 -45 
Q 416 90 419 272 
Q 422 454 425 748 
Q 429 1043 429 1491 
L 576 1491 
Q 602 1107 720 774 
Q 838 442 1084 240 
Q 1331 38 1741 38 
Q 1952 38 2141 124 
Q 2330 211 2451 400 
Q 2573 589 2573 890 
Q 2573 1152 2448 1347 
Q 2323 1542 2099 1712 
Q 1875 1882 1574 2061 
Q 1274 2246 1011 2438 
Q 749 2630 592 2883 
Q 435 3136 435 3494 
Q 435 3872 604 4118 
Q 774 4365 1049 4483 
Q 1325 4602 1638 4602 
z
" transform="scale(0.015625)"/>
      <path id="PlayfairDisplay-Regular-61" d="M 1094 -45 
Q 832 -45 640 54 
Q 448 154 349 333 
Q 250 512 250 749 
Q 250 1030 381 1209 
Q 512 1389 717 1497 
Q 922 1606 1149 1680 
Q 1376 1754 1581 1821 
Q 1786 1888 1917 1977 
Q 2048 2067 2048 2214 
L 2048 2611 
Q 2048 2880 1968 3021 
Q 1888 3162 1753 3210 
Q 1619 3258 1453 3258 
Q 1293 3258 1110 3213 
Q 928 3168 819 3027 
Q 941 3002 1030 2899 
Q 1120 2797 1120 2637 
Q 1120 2477 1017 2384 
Q 915 2291 755 2291 
Q 570 2291 483 2409 
Q 397 2528 397 2675 
Q 397 2842 480 2944 
Q 563 3046 691 3136 
Q 838 3238 1072 3312 
Q 1306 3386 1600 3386 
Q 1862 3386 2048 3325 
Q 2234 3264 2355 3149 
Q 2522 2995 2573 2774 
Q 2624 2554 2624 2246 
L 2624 467 
Q 2624 307 2672 236 
Q 2720 166 2822 166 
Q 2893 166 2957 198 
Q 3021 230 3110 301 
L 3181 192 
Q 3046 90 2924 22 
Q 2803 -45 2598 -45 
Q 2413 -45 2291 19 
Q 2170 83 2109 208 
Q 2048 333 2048 525 
Q 1875 237 1635 96 
Q 1395 -45 1094 -45 
z
M 1325 211 
Q 1536 211 1718 332 
Q 1901 454 2048 698 
L 2048 1952 
Q 1971 1843 1824 1769 
Q 1677 1696 1504 1622 
Q 1331 1549 1174 1449 
Q 1018 1350 915 1190 
Q 813 1030 813 774 
Q 813 518 950 364 
Q 1088 211 1325 211 
z
" transform="scale(0.015625)"/>
      <path id="PlayfairDisplay-Regular-6e" d="M 2336 3386 
Q 2579 3386 2742 3322 
Q 2906 3258 3014 3142 
Q 3136 3014 3187 2822 
Q 3238 2630 3238 2304 
L 3238 595 
Q 3238 326 3350 230 
Q 3462 134 3725 134 
L 3725 0 
Q 3616 6 3392 16 
Q 3168 26 2957 26 
Q 2746 26 2544 16 
Q 2342 6 2240 0 
L 2240 134 
Q 2470 134 2566 230 
Q 2662 326 2662 595 
L 2662 2445 
Q 2662 2643 2630 2809 
Q 2598 2976 2486 3078 
Q 2374 3181 2144 3181 
Q 1875 3181 1673 3027 
Q 1472 2874 1360 2608 
Q 1248 2342 1248 2016 
L 1248 595 
Q 1248 326 1344 230 
Q 1440 134 1670 134 
L 1670 0 
Q 1568 6 1366 16 
Q 1165 26 954 26 
Q 742 26 518 16 
Q 294 6 186 0 
L 186 134 
Q 448 134 560 230 
Q 672 326 672 595 
L 672 2598 
Q 672 2886 569 3024 
Q 467 3162 186 3162 
L 186 3296 
Q 390 3277 582 3277 
Q 768 3277 937 3299 
Q 1107 3322 1248 3366 
L 1248 2611 
Q 1414 3046 1712 3216 
Q 2010 3386 2336 3386 
z
" transform="scale(0.015625)"/>
      <path id="PlayfairDisplay-Regular-63" d="M 1786 3386 
Q 1990 3386 2182 3334 
Q 2374 3283 2528 3181 
Q 2675 3085 2752 2960 
Q 2829 2835 2829 2688 
Q 2829 2515 2733 2422 
Q 2637 2330 2490 2330 
Q 2349 2330 2243 2413 
Q 2138 2496 2138 2650 
Q 2138 2797 2218 2886 
Q 2298 2976 2406 3002 
Q 2342 3117 2179 3193 
Q 2016 3270 1830 3270 
Q 1670 3270 1510 3193 
Q 1350 3117 1216 2941 
Q 1082 2765 998 2461 
Q 915 2157 915 1702 
Q 915 1139 1043 806 
Q 1171 474 1379 330 
Q 1587 186 1837 186 
Q 2003 186 2176 250 
Q 2349 314 2502 458 
Q 2656 602 2765 845 
L 2886 800 
Q 2822 595 2675 387 
Q 2528 179 2291 44 
Q 2054 -90 1709 -90 
Q 1312 -90 992 115 
Q 672 320 483 701 
Q 294 1082 294 1606 
Q 294 2131 483 2531 
Q 672 2931 1011 3158 
Q 1350 3386 1786 3386 
z
" transform="scale(0.015625)"/>
      <path id="PlayfairDisplay-Regular-68" d="M 1190 5011 
L 1190 2618 
Q 1357 3053 1654 3219 
Q 1952 3386 2278 3386 
Q 2522 3386 2685 3322 
Q 2848 3258 2957 3142 
Q 3078 3014 3129 2822 
Q 3181 2630 3181 2304 
L 3181 595 
Q 3181 326 3293 230 
Q 3405 134 3667 134 
L 3667 0 
Q 3558 6 3334 16 
Q 3110 26 2899 26 
Q 2688 26 2486 16 
Q 2285 6 2182 0 
L 2182 134 
Q 2413 134 2509 230 
Q 2605 326 2605 595 
L 2605 2445 
Q 2605 2643 2573 2809 
Q 2541 2976 2429 3078 
Q 2317 3181 2086 3181 
Q 1824 3181 1622 3033 
Q 1421 2886 1305 2624 
Q 1190 2362 1190 2022 
L 1190 595 
Q 1190 326 1286 230 
Q 1382 134 1613 134 
L 1613 0 
Q 1510 6 1308 16 
Q 1107 26 896 26 
Q 685 26 461 16 
Q 237 6 128 0 
L 128 134 
Q 390 134 502 230 
Q 614 326 614 595 
L 614 4243 
Q 614 4531 512 4668 
Q 410 4806 128 4806 
L 128 4941 
Q 333 4922 525 4922 
Q 710 4922 880 4944 
Q 1050 4966 1190 5011 
z
" transform="scale(0.015625)"/>
      <path id="PlayfairDisplay-Regular-6f" d="M 1754 3386 
Q 2163 3386 2489 3206 
Q 2816 3027 3011 2643 
Q 3206 2259 3206 1645 
Q 3206 1030 3011 649 
Q 2816 269 2489 89 
Q 2163 -90 1754 -90 
Q 1350 -90 1020 89 
Q 691 269 496 649 
Q 301 1030 301 1645 
Q 301 2259 496 2643 
Q 691 3027 1020 3206 
Q 1350 3386 1754 3386 
z
M 1754 3258 
Q 1389 3258 1155 2880 
Q 922 2502 922 1645 
Q 922 787 1155 412 
Q 1389 38 1754 38 
Q 2118 38 2352 412 
Q 2586 787 2586 1645 
Q 2586 2502 2352 2880 
Q 2118 3258 1754 3258 
z
" transform="scale(0.015625)"/>
      <path id="PlayfairDisplay-Regular-2c" d="M 806 730 
Q 947 730 1036 672 
Q 1126 614 1184 525 
Q 1254 422 1273 300 
Q 1293 179 1293 102 
Q 1293 -211 1133 -467 
Q 973 -723 634 -883 
L 576 -768 
Q 774 -685 918 -505 
Q 1062 -326 1062 -141 
Q 1062 -64 1043 -6 
Q 941 -90 806 -90 
Q 640 -90 518 19 
Q 397 128 397 320 
Q 397 499 518 614 
Q 640 730 806 730 
z
" transform="scale(0.015625)"/>
      <path id="PlayfairDisplay-Regular-20" transform="scale(0.015625)"/>
     </defs>
     <use xlink:href="#PlayfairDisplay-Regular-53"/>
     <use xlink:href="#PlayfairDisplay-Regular-61" transform="translate(53.999985 0)"/>
     <use xlink:href="#PlayfairDisplay-Regular-6e" transform="translate(103.799973 0)"/>
     <use xlink:href="#PlayfairDisplay-Regular-63" transform="translate(163.499969 0)"/>
     <use xlink:href="#PlayfairDisplay-Regular-68" transform="translate(212.09996 0)"/>
     <use xlink:href="#PlayfairDisplay-Regular-6f" transform="translate(270.899948 0)"/>
     <use xlink:href="#PlayfairDisplay-Regular-2c" transform="translate(325.699936 0)"/>
     <use xlink:href="#PlayfairDisplay-Regular-20" transform="translate(351.799927 0)"/>
    </g>
   </g>
   <g id="text_2">
    <!-- Letters -->
    <g transform="translate(901.586407 449.647252) rotate(-23.940106) scale(0.18 -0.18)">
     <defs>
      <path id="PlayfairDisplay-Italic-4c" d="M 3424 1344 
Q 3386 1242 3347 1107 
Q 3309 973 3264 819 
Q 3232 698 3181 470 
Q 3130 243 3091 0 
Q 2765 13 2355 16 
Q 1946 19 1626 19 
Q 1485 19 1264 19 
Q 1043 19 787 16 
Q 531 13 268 9 
Q 6 6 -224 0 
L -192 128 
Q 26 141 147 179 
Q 269 218 336 333 
Q 403 448 467 678 
L 1318 3853 
Q 1382 4090 1372 4202 
Q 1363 4314 1264 4355 
Q 1165 4397 947 4403 
L 979 4531 
Q 1114 4525 1331 4518 
Q 1549 4512 1798 4512 
Q 2022 4512 2243 4518 
Q 2464 4525 2611 4531 
L 2579 4403 
Q 2362 4397 2240 4355 
Q 2118 4314 2048 4202 
Q 1978 4090 1914 3853 
L 1062 678 
Q 998 448 1008 333 
Q 1018 218 1120 182 
Q 1222 147 1440 147 
L 1907 147 
Q 2310 147 2550 262 
Q 2790 378 2953 640 
Q 3117 902 3277 1344 
L 3424 1344 
z
" transform="scale(0.015625)"/>
      <path id="PlayfairDisplay-Italic-65" d="M 538 1453 
Q 896 1574 1187 1692 
Q 1478 1811 1651 1946 
Q 1882 2131 2016 2393 
Q 2150 2656 2150 2970 
Q 2150 3155 2124 3206 
Q 2099 3258 2048 3258 
Q 1888 3258 1702 3117 
Q 1517 2976 1337 2729 
Q 1158 2483 1008 2169 
Q 858 1856 768 1501 
Q 678 1146 678 794 
Q 678 467 800 323 
Q 922 179 1120 179 
Q 1350 179 1606 320 
Q 1862 461 2106 819 
L 2208 768 
Q 2086 557 1888 358 
Q 1690 160 1443 35 
Q 1197 -90 922 -90 
Q 666 -90 474 12 
Q 282 115 179 316 
Q 77 518 77 813 
Q 77 1088 179 1430 
Q 282 1773 470 2115 
Q 659 2458 921 2746 
Q 1184 3034 1504 3206 
Q 1824 3379 2189 3379 
Q 2387 3379 2524 3273 
Q 2662 3168 2662 2957 
Q 2662 2701 2512 2480 
Q 2362 2259 2115 2076 
Q 1869 1894 1581 1753 
Q 1293 1613 1017 1510 
Q 742 1408 531 1344 
L 538 1453 
z
" transform="scale(0.015625)"/>
      <path id="PlayfairDisplay-Italic-74" d="M 2400 3290 
L 2381 3162 
L 390 3162 
L 422 3290 
L 2400 3290 
z
M 774 544 
Q 717 333 803 240 
Q 890 147 1030 147 
Q 1171 147 1315 268 
Q 1459 390 1600 787 
L 1690 1037 
L 1811 1037 
L 1677 634 
Q 1536 218 1315 64 
Q 1094 -90 800 -90 
Q 538 -90 400 22 
Q 262 134 236 339 
Q 211 544 288 806 
L 1280 4262 
Q 1434 4269 1584 4288 
Q 1734 4307 1856 4352 
L 774 544 
z
" transform="scale(0.015625)"/>
      <path id="PlayfairDisplay-Italic-72" d="M 774 0 
L 218 0 
L 986 2746 
Q 1050 2963 1027 3052 
Q 1005 3142 896 3142 
Q 755 3142 640 2995 
Q 525 2848 397 2490 
L 314 2253 
L 192 2253 
L 352 2720 
Q 448 2989 579 3129 
Q 710 3270 854 3324 
Q 998 3379 1126 3379 
Q 1318 3379 1398 3296 
Q 1478 3213 1488 3078 
Q 1498 2944 1469 2787 
Q 1440 2630 1402 2483 
L 774 0 
z
M 2419 3219 
Q 2272 3219 2115 3081 
Q 1958 2944 1795 2685 
Q 1632 2426 1469 2064 
Q 1306 1702 1149 1260 
Q 992 819 845 307 
L 1005 1126 
Q 1216 1754 1398 2182 
Q 1581 2611 1760 2876 
Q 1939 3142 2128 3260 
Q 2317 3379 2528 3379 
Q 2707 3379 2806 3276 
Q 2906 3174 2906 3014 
Q 2906 2886 2842 2780 
Q 2778 2675 2678 2614 
Q 2579 2554 2458 2554 
Q 2349 2554 2275 2614 
Q 2202 2675 2202 2784 
Q 2202 2886 2240 2966 
Q 2278 3046 2342 3104 
Q 2406 3162 2490 3194 
Q 2477 3206 2461 3212 
Q 2445 3219 2419 3219 
z
" transform="scale(0.015625)"/>
      <path id="PlayfairDisplay-Italic-73" d="M 378 96 
Q 429 70 489 54 
Q 550 38 672 38 
Q 954 38 1136 208 
Q 1318 378 1318 698 
Q 1318 896 1244 1091 
Q 1171 1286 986 1542 
Q 838 1747 704 1961 
Q 570 2176 570 2470 
Q 570 2746 704 2947 
Q 838 3149 1065 3264 
Q 1293 3379 1562 3379 
Q 1747 3379 1926 3334 
Q 2106 3290 2224 3171 
Q 2342 3053 2342 2822 
Q 2342 2765 2313 2685 
Q 2285 2605 2221 2547 
Q 2157 2490 2048 2490 
Q 1946 2490 1869 2563 
Q 1792 2637 1792 2758 
Q 1792 2874 1840 2979 
Q 1888 3085 1971 3187 
Q 1850 3264 1651 3264 
Q 1414 3264 1254 3104 
Q 1094 2944 1094 2656 
Q 1094 2509 1139 2397 
Q 1184 2285 1270 2163 
Q 1357 2042 1478 1856 
Q 1638 1613 1747 1389 
Q 1856 1165 1856 915 
Q 1856 621 1705 393 
Q 1555 166 1305 38 
Q 1056 -90 755 -90 
Q 538 -90 339 -26 
Q 141 38 16 176 
Q -109 314 -109 544 
Q -109 634 -54 733 
Q 0 832 141 832 
Q 294 832 358 707 
Q 422 582 422 429 
Q 422 326 406 246 
Q 390 166 378 96 
z
" transform="scale(0.015625)"/>
     </defs>
     <use xlink:href="#PlayfairDisplay-Italic-4c"/>
     <use xlink:href="#PlayfairDisplay-Italic-65" transform="translate(58.599991 0)"/>
     <use xlink:href="#PlayfairDisplay-Italic-74" transform="translate(101.499985 0)"/>
     <use xlink:href="#PlayfairDisplay-Italic-74" transform="translate(135.099976 0)"/>
     <use xlink:href="#PlayfairDisplay-Italic-65" transform="translate(168.699966 0)"/>
     <use xlink:href="#PlayfairDisplay-Italic-72" transform="translate(211.59996 0)"/>
     <use xlink:href="#PlayfairDisplay-Italic-73" transform="translate(254.199951 0)"/>
    </g>
   </g>
   <g id="text_3">
    <!-- Interesting Narrative -->
    <g transform="translate(440.035059 989.718465) rotate(-69.072225) scale(0.18 -0.18)">
     <defs>
      <path id="PlayfairDisplay-Italic-49" d="M 1062 678 
Q 1005 448 1011 333 
Q 1018 218 1120 179 
Q 1222 141 1440 128 
L 1414 0 
Q 1267 13 1046 16 
Q 826 19 602 19 
Q 352 19 141 16 
Q -70 13 -211 0 
L -179 128 
Q 32 141 150 179 
Q 269 218 339 333 
Q 410 448 467 678 
L 1312 3853 
Q 1376 4090 1363 4202 
Q 1350 4314 1251 4355 
Q 1152 4397 934 4403 
L 966 4531 
Q 1094 4525 1312 4518 
Q 1530 4512 1779 4512 
Q 2003 4512 2224 4518 
Q 2445 4525 2598 4531 
L 2566 4403 
Q 2349 4397 2227 4355 
Q 2106 4314 2038 4202 
Q 1971 4090 1907 3853 
L 1062 678 
z
" transform="scale(0.015625)"/>
      <path id="PlayfairDisplay-Italic-6e" d="M 781 0 
L 224 0 
L 992 2746 
Q 1018 2822 1034 2915 
Q 1050 3008 1024 3075 
Q 998 3142 896 3142 
Q 755 3142 646 3004 
Q 538 2867 403 2490 
L 320 2253 
L 198 2253 
L 358 2720 
Q 499 3123 707 3251 
Q 915 3379 1120 3379 
Q 1312 3379 1398 3296 
Q 1485 3213 1494 3081 
Q 1504 2950 1475 2793 
Q 1446 2637 1408 2483 
L 781 0 
z
M 1075 1331 
Q 1299 1907 1510 2297 
Q 1722 2688 1926 2928 
Q 2131 3168 2345 3273 
Q 2560 3379 2790 3379 
Q 3091 3379 3203 3235 
Q 3315 3091 3302 2870 
Q 3290 2650 3213 2413 
L 2592 544 
Q 2534 371 2544 259 
Q 2554 147 2694 147 
Q 2816 147 2934 281 
Q 3053 416 3187 800 
L 3270 1037 
L 3392 1037 
L 3232 570 
Q 3142 301 3011 160 
Q 2880 19 2736 -35 
Q 2592 -90 2458 -90 
Q 2304 -90 2205 -38 
Q 2106 13 2054 96 
Q 1984 211 2009 396 
Q 2035 582 2112 806 
L 2720 2637 
Q 2752 2726 2774 2851 
Q 2797 2976 2765 3075 
Q 2733 3174 2579 3174 
Q 2426 3174 2253 3040 
Q 2080 2906 1894 2659 
Q 1709 2413 1529 2070 
Q 1350 1728 1187 1315 
Q 1024 902 890 435 
L 1075 1331 
z
" transform="scale(0.015625)"/>
      <path id="PlayfairDisplay-Italic-69" d="M 1210 4454 
Q 1242 4621 1379 4742 
Q 1517 4864 1677 4864 
Q 1843 4864 1936 4742 
Q 2029 4621 1997 4454 
Q 1965 4288 1827 4166 
Q 1690 4045 1523 4045 
Q 1363 4045 1270 4166 
Q 1178 4288 1210 4454 
z
M 1011 2746 
Q 1146 3142 922 3142 
Q 774 3142 659 2982 
Q 544 2822 416 2490 
L 326 2253 
L 205 2253 
L 371 2720 
Q 467 2989 601 3129 
Q 736 3270 886 3324 
Q 1037 3379 1165 3379 
Q 1370 3379 1466 3296 
Q 1562 3213 1581 3078 
Q 1600 2944 1568 2787 
Q 1536 2630 1485 2483 
L 800 544 
Q 736 358 758 252 
Q 781 147 902 147 
Q 1030 147 1145 288 
Q 1261 429 1402 800 
L 1491 1037 
L 1613 1037 
L 1446 570 
Q 1357 320 1229 176 
Q 1101 32 953 -29 
Q 806 -90 659 -90 
Q 384 -90 288 38 
Q 192 166 217 371 
Q 243 576 326 806 
L 1011 2746 
z
" transform="scale(0.015625)"/>
      <path id="PlayfairDisplay-Italic-67" d="M 1382 1440 
L 1542 1434 
Q 1312 1306 1117 1200 
Q 922 1094 800 1004 
Q 678 915 678 832 
Q 678 768 768 713 
Q 858 659 1062 608 
L 1530 486 
Q 1734 435 1897 368 
Q 2061 301 2157 198 
Q 2253 96 2253 -70 
Q 2253 -230 2147 -432 
Q 2042 -634 1821 -819 
Q 1600 -1005 1248 -1126 
Q 896 -1248 397 -1248 
Q 64 -1248 -163 -1187 
Q -390 -1126 -502 -1017 
Q -614 -909 -614 -768 
Q -614 -666 -556 -554 
Q -499 -442 -387 -336 
Q -275 -230 -105 -137 
Q 64 -45 294 19 
L 339 -77 
Q 102 -198 12 -352 
Q -77 -506 -77 -659 
Q -77 -915 102 -1027 
Q 282 -1139 544 -1139 
Q 755 -1139 979 -1072 
Q 1203 -1005 1395 -893 
Q 1587 -781 1702 -633 
Q 1818 -486 1818 -326 
Q 1818 -230 1757 -198 
Q 1696 -166 1555 -134 
L 576 115 
Q 422 154 326 246 
Q 230 339 230 499 
Q 230 627 320 761 
Q 410 896 659 1059 
Q 909 1222 1382 1440 
z
M 1709 3264 
Q 1504 3264 1363 3145 
Q 1222 3027 1129 2844 
Q 1037 2662 989 2464 
Q 941 2266 921 2102 
Q 902 1939 902 1862 
Q 902 1658 995 1568 
Q 1088 1478 1242 1478 
Q 1485 1478 1635 1625 
Q 1786 1773 1869 1990 
Q 1952 2208 1981 2425 
Q 2010 2643 2010 2790 
Q 2010 3008 1952 3136 
Q 1894 3264 1709 3264 
z
M 1734 3379 
Q 2112 3379 2345 3209 
Q 2579 3040 2579 2662 
Q 2579 2355 2406 2054 
Q 2234 1754 1920 1558 
Q 1606 1363 1178 1363 
Q 826 1363 586 1532 
Q 346 1702 346 2061 
Q 346 2234 419 2461 
Q 493 2688 653 2896 
Q 813 3104 1078 3241 
Q 1344 3379 1734 3379 
z
M 2189 3046 
L 2074 3091 
Q 2163 3309 2380 3475 
Q 2598 3642 2835 3642 
Q 3002 3642 3104 3549 
Q 3206 3456 3206 3258 
Q 3206 3078 3116 2995 
Q 3027 2912 2925 2912 
Q 2822 2912 2729 2979 
Q 2637 3046 2617 3193 
Q 2598 3341 2701 3571 
L 2784 3552 
Q 2515 3450 2400 3338 
Q 2285 3226 2189 3046 
z
" transform="scale(0.015625)"/>
      <path id="PlayfairDisplay-Italic-20" transform="scale(0.015625)"/>
      <path id="PlayfairDisplay-Italic-4e" d="M 3194 -32 
L 1702 4179 
Q 1702 4179 1680 4131 
Q 1658 4083 1629 4016 
Q 1600 3949 1577 3901 
Q 1555 3853 1555 3853 
Q 1606 4090 1590 4202 
Q 1574 4314 1462 4355 
Q 1350 4397 1101 4403 
L 1133 4531 
Q 1235 4525 1385 4518 
Q 1536 4512 1702 4512 
Q 2003 4512 2221 4531 
L 3450 934 
Q 3450 934 3440 864 
Q 3430 794 3417 685 
Q 3405 576 3392 451 
Q 3379 326 3366 217 
Q 3354 109 3344 38 
Q 3334 -32 3334 -32 
L 3194 -32 
z
M 5146 4691 
Q 4966 4685 4841 4598 
Q 4717 4512 4621 4365 
Q 4326 3930 4019 2835 
Q 3712 1741 3334 -32 
L 3245 147 
Q 3341 576 3449 1072 
Q 3558 1568 3683 2067 
Q 3808 2566 3939 3020 
Q 4070 3475 4214 3836 
Q 4358 4198 4506 4416 
Q 4627 4589 4793 4707 
Q 4960 4826 5197 4826 
Q 5421 4826 5501 4726 
Q 5581 4627 5581 4499 
Q 5581 4339 5485 4188 
Q 5389 4038 5203 4038 
Q 5062 4038 5011 4121 
Q 4960 4205 4960 4288 
Q 4960 4397 5021 4505 
Q 5082 4614 5165 4691 
Q 5158 4691 5155 4691 
Q 5152 4691 5146 4691 
z
M -26 -339 
Q 147 -333 278 -246 
Q 410 -160 506 -6 
Q 691 288 880 915 
Q 1069 1542 1264 2432 
Q 1459 3322 1658 4384 
L 1766 4250 
Q 1664 3725 1552 3184 
Q 1440 2643 1325 2128 
Q 1210 1613 1088 1171 
Q 966 730 844 406 
Q 723 83 608 -70 
Q 493 -224 336 -349 
Q 179 -474 -77 -474 
Q -301 -474 -381 -374 
Q -461 -275 -461 -141 
Q -461 19 -365 166 
Q -269 314 -83 314 
Q 64 314 112 230 
Q 160 147 160 64 
Q 160 -45 99 -153 
Q 38 -262 -45 -339 
Q -38 -339 -35 -339 
Q -32 -339 -26 -339 
z
" transform="scale(0.015625)"/>
      <path id="PlayfairDisplay-Italic-61" d="M 845 115 
Q 998 115 1196 310 
Q 1395 506 1600 838 
Q 1805 1171 1977 1593 
Q 2150 2016 2253 2470 
L 2144 1779 
Q 1901 1101 1657 688 
Q 1414 275 1164 92 
Q 915 -90 659 -90 
Q 358 -90 208 128 
Q 58 346 58 685 
Q 58 992 160 1353 
Q 262 1715 444 2073 
Q 627 2432 864 2726 
Q 1101 3021 1379 3200 
Q 1658 3379 1946 3379 
Q 2170 3379 2288 3158 
Q 2406 2938 2336 2541 
L 2266 2502 
Q 2310 2842 2220 3050 
Q 2131 3258 1926 3258 
Q 1760 3258 1577 3094 
Q 1395 2931 1225 2652 
Q 1056 2374 918 2028 
Q 781 1683 701 1315 
Q 621 947 621 608 
Q 621 333 681 224 
Q 742 115 845 115 
z
M 2458 3290 
Q 2611 3296 2764 3315 
Q 2918 3334 3046 3379 
L 2246 550 
Q 2234 493 2211 400 
Q 2189 307 2211 230 
Q 2234 154 2342 154 
Q 2470 154 2592 294 
Q 2714 435 2835 806 
L 2912 1043 
L 3034 1043 
L 2874 576 
Q 2784 320 2659 176 
Q 2534 32 2400 -29 
Q 2266 -90 2138 -90 
Q 1888 -90 1786 77 
Q 1702 224 1740 419 
Q 1779 614 1830 813 
L 2458 3290 
z
" transform="scale(0.015625)"/>
      <path id="PlayfairDisplay-Italic-76" d="M 3034 2426 
Q 2854 2515 2700 2688 
Q 2547 2861 2566 3117 
Q 2579 3264 2672 3325 
Q 2765 3386 2848 3386 
Q 3072 3386 3155 3133 
Q 3238 2880 3194 2483 
Q 3149 2106 3040 1734 
Q 2931 1363 2761 1036 
Q 2592 710 2355 454 
Q 2118 198 1824 54 
Q 1530 -90 1171 -90 
Q 883 -90 720 28 
Q 557 147 493 329 
Q 429 512 442 704 
Q 467 1062 662 1475 
Q 858 1888 1181 2313 
Q 1504 2739 1926 3136 
Q 1824 3098 1709 3030 
Q 1594 2963 1485 2896 
Q 1376 2829 1273 2781 
Q 1171 2733 1082 2733 
Q 960 2733 873 2813 
Q 787 2893 678 2893 
Q 576 2893 509 2806 
Q 442 2720 365 2496 
L 294 2259 
L 173 2259 
L 314 2726 
Q 422 3110 585 3244 
Q 749 3379 915 3379 
Q 1037 3379 1120 3315 
Q 1203 3251 1289 3190 
Q 1376 3130 1498 3130 
Q 1651 3130 1788 3178 
Q 1926 3226 2035 3328 
L 2099 3450 
L 2234 3386 
Q 1978 3072 1776 2758 
Q 1574 2445 1430 2125 
Q 1286 1805 1200 1478 
Q 1114 1152 1082 813 
Q 1056 442 1136 282 
Q 1216 122 1357 122 
Q 1658 122 1914 282 
Q 2170 442 2371 704 
Q 2573 966 2717 1276 
Q 2861 1587 2941 1888 
Q 3021 2189 3034 2426 
z
" transform="scale(0.015625)"/>
     </defs>
     <use xlink:href="#PlayfairDisplay-Italic-49"/>
     <use xlink:href="#PlayfairDisplay-Italic-6e" transform="translate(34.099991 0)"/>
     <use xlink:href="#PlayfairDisplay-Italic-74" transform="translate(92.099976 0)"/>
     <use xlink:href="#PlayfairDisplay-Italic-65" transform="translate(125.699966 0)"/>
     <use xlink:href="#PlayfairDisplay-Italic-72" transform="translate(168.59996 0)"/>
     <use xlink:href="#PlayfairDisplay-Italic-65" transform="translate(211.199951 0)"/>
     <use xlink:href="#PlayfairDisplay-Italic-73" transform="translate(254.099945 0)"/>
     <use xlink:href="#PlayfairDisplay-Italic-74" transform="translate(292.199936 0)"/>
     <use xlink:href="#PlayfairDisplay-Italic-69" transform="translate(325.799927 0)"/>
     <use xlink:href="#PlayfairDisplay-Italic-6e" transform="translate(355.999924 0)"/>
     <use xlink:href="#PlayfairDisplay-Italic-67" transform="translate(413.999908 0)"/>
     <use xlink:href="#PlayfairDisplay-Italic-20" transform="translate(458.899902 0)"/>
     <use xlink:href="#PlayfairDisplay-Italic-4e" transform="translate(484.19989 0)"/>
     <use xlink:href="#PlayfairDisplay-Italic-61" transform="translate(561.199875 0)"/>
     <use xlink:href="#PlayfairDisplay-Italic-72" transform="translate(613.499863 0)"/>
     <use xlink:href="#PlayfairDisplay-Italic-72" transform="translate(656.099854 0)"/>
     <use xlink:href="#PlayfairDisplay-Italic-61" transform="translate(698.699844 0)"/>
     <use xlink:href="#PlayfairDisplay-Italic-74" transform="translate(750.999832 0)"/>
     <use xlink:href="#PlayfairDisplay-Italic-69" transform="translate(784.599823 0)"/>
     <use xlink:href="#PlayfairDisplay-Italic-76" transform="translate(814.79982 0)"/>
     <use xlink:href="#PlayfairDisplay-Italic-65" transform="translate(868.099808 0)"/>
    </g>
   </g>
   <g id="text_4">
    <!-- Equiano,  -->
    <g transform="translate(413.558824 1059.385215) rotate(-69.072225) scale(0.18 -0.18)">
     <defs>
      <path id="PlayfairDisplay-Regular-45" d="M 3462 4531 
Q 3437 4307 3427 4096 
Q 3418 3885 3418 3776 
Q 3418 3661 3424 3555 
Q 3430 3450 3437 3379 
L 3290 3379 
Q 3251 3757 3180 3977 
Q 3110 4198 2940 4291 
Q 2771 4384 2432 4384 
L 1901 4384 
Q 1683 4384 1571 4349 
Q 1459 4314 1420 4202 
Q 1382 4090 1382 3853 
L 1382 678 
Q 1382 448 1420 333 
Q 1459 218 1571 182 
Q 1683 147 1901 147 
L 2368 147 
Q 2771 147 2979 256 
Q 3187 365 3280 611 
Q 3373 858 3418 1280 
L 3565 1280 
Q 3546 1107 3546 819 
Q 3546 698 3555 470 
Q 3565 243 3590 0 
Q 3264 13 2854 16 
Q 2445 19 2125 19 
Q 1984 19 1763 19 
Q 1542 19 1286 16 
Q 1030 13 768 9 
Q 506 6 269 0 
L 269 128 
Q 486 141 598 179 
Q 710 218 748 333 
Q 787 448 787 678 
L 787 3853 
Q 787 4090 748 4202 
Q 710 4314 598 4355 
Q 486 4397 269 4403 
L 269 4531 
Q 506 4525 768 4521 
Q 1030 4518 1286 4515 
Q 1542 4512 1763 4512 
Q 1984 4512 2125 4512 
Q 2419 4512 2793 4515 
Q 3168 4518 3462 4531 
z
M 2362 2342 
Q 2362 2342 2362 2278 
Q 2362 2214 2362 2214 
L 1190 2214 
Q 1190 2214 1190 2278 
Q 1190 2342 1190 2342 
L 2362 2342 
z
M 2547 3187 
Q 2522 2822 2525 2630 
Q 2528 2438 2528 2278 
Q 2528 2118 2534 1926 
Q 2541 1734 2566 1370 
L 2419 1370 
Q 2394 1574 2358 1769 
Q 2323 1965 2204 2089 
Q 2086 2214 1805 2214 
L 1805 2342 
Q 2016 2342 2128 2428 
Q 2240 2515 2291 2649 
Q 2342 2784 2361 2928 
Q 2381 3072 2400 3187 
L 2547 3187 
z
" transform="scale(0.015625)"/>
      <path id="PlayfairDisplay-Regular-71" d="M 1670 3386 
Q 2067 3386 2310 3216 
Q 2554 3046 2688 2656 
L 2560 2726 
Q 2438 2989 2220 3113 
Q 2003 3238 1722 3238 
Q 1344 3238 1133 2848 
Q 922 2458 922 1645 
Q 922 1133 1024 787 
Q 1126 442 1324 272 
Q 1523 102 1805 102 
Q 2074 102 2298 364 
Q 2522 627 2560 1139 
L 2637 1050 
Q 2592 506 2307 208 
Q 2022 -90 1619 -90 
Q 1254 -90 953 99 
Q 653 288 477 675 
Q 301 1062 301 1645 
Q 301 2227 483 2614 
Q 666 3002 976 3194 
Q 1286 3386 1670 3386 
z
M 3027 3398 
L 3136 3354 
Q 3110 3270 3100 3174 
Q 3091 3078 3091 2982 
L 3091 -627 
Q 3091 -858 3187 -941 
Q 3283 -1024 3514 -1024 
L 3514 -1158 
Q 3411 -1152 3219 -1142 
Q 3027 -1133 2822 -1133 
Q 2547 -1133 2294 -1142 
Q 2042 -1152 1901 -1158 
L 1901 -1024 
Q 2189 -1024 2352 -931 
Q 2515 -838 2515 -563 
L 2515 2861 
Q 2605 2950 2688 3040 
Q 2771 3130 2857 3219 
Q 2944 3309 3027 3398 
z
" transform="scale(0.015625)"/>
      <path id="PlayfairDisplay-Regular-75" d="M 3091 3366 
L 3091 691 
Q 3091 403 3196 265 
Q 3302 128 3578 128 
L 3578 -6 
Q 3379 13 3181 13 
Q 2995 13 2825 -6 
Q 2656 -26 2515 -77 
L 2515 678 
Q 2355 262 2064 86 
Q 1773 -90 1466 -90 
Q 1242 -90 1075 -26 
Q 909 38 800 154 
Q 678 282 633 486 
Q 589 691 589 992 
L 589 2598 
Q 589 2886 486 3024 
Q 384 3162 102 3162 
L 102 3296 
Q 307 3277 499 3277 
Q 685 3277 854 3299 
Q 1024 3322 1165 3366 
L 1165 851 
Q 1165 653 1190 486 
Q 1216 320 1318 217 
Q 1421 115 1651 115 
Q 1901 115 2096 268 
Q 2291 422 2403 684 
Q 2515 947 2515 1274 
L 2515 2598 
Q 2515 2886 2412 3024 
Q 2310 3162 2029 3162 
L 2029 3296 
Q 2234 3277 2426 3277 
Q 2611 3277 2780 3299 
Q 2950 3322 3091 3366 
z
" transform="scale(0.015625)"/>
      <path id="PlayfairDisplay-Regular-69" d="M 914 4896 
Q 1080 4896 1201 4774 
Q 1323 4653 1323 4486 
Q 1323 4320 1201 4198 
Q 1080 4077 914 4077 
Q 747 4077 625 4198 
Q 504 4320 504 4486 
Q 504 4653 625 4774 
Q 747 4896 914 4896 
z
M 1248 3366 
L 1248 595 
Q 1248 326 1360 230 
Q 1472 134 1734 134 
L 1734 0 
Q 1626 6 1405 16 
Q 1184 26 960 26 
Q 742 26 518 16 
Q 294 6 186 0 
L 186 134 
Q 448 134 560 230 
Q 672 326 672 595 
L 672 2598 
Q 672 2886 569 3024 
Q 467 3162 186 3162 
L 186 3296 
Q 390 3277 582 3277 
Q 768 3277 937 3299 
Q 1107 3322 1248 3366 
z
" transform="scale(0.015625)"/>
     </defs>
     <use xlink:href="#PlayfairDisplay-Regular-45"/>
     <use xlink:href="#PlayfairDisplay-Regular-71" transform="translate(60.899994 0)"/>
     <use xlink:href="#PlayfairDisplay-Regular-75" transform="translate(117.199982 0)"/>
     <use xlink:href="#PlayfairDisplay-Regular-69" transform="translate(175.299973 0)"/>
     <use xlink:href="#PlayfairDisplay-Regular-61" transform="translate(204.59996 0)"/>
     <use xlink:href="#PlayfairDisplay-Regular-6e" transform="translate(254.399948 0)"/>
     <use xlink:href="#PlayfairDisplay-Regular-6f" transform="translate(314.099945 0)"/>
     <use xlink:href="#PlayfairDisplay-Regular-2c" transform="translate(368.899933 0)"/>
     <use xlink:href="#PlayfairDisplay-Regular-20" transform="translate(394.999924 0)"/>
    </g>
   </g>
   <g id="text_5">
    <!-- Thoughts and Sentiments -->
    <g transform="translate(248.57423 265.166352) rotate(-316.506166) scale(0.18 -0.18)">
     <defs>
      <path id="PlayfairDisplay-Italic-54" d="M 4915 5229 
Q 5062 5229 5132 5139 
Q 5203 5050 5203 4922 
Q 5203 4774 5116 4656 
Q 5030 4538 4902 4461 
Q 4742 4358 4489 4304 
Q 4237 4250 3891 4250 
Q 3622 4250 3356 4278 
Q 3091 4307 2835 4345 
Q 2579 4384 2329 4413 
Q 2080 4442 1837 4442 
Q 1638 4442 1430 4422 
Q 1222 4403 1120 4333 
Q 1171 4269 1203 4163 
Q 1235 4058 1235 3962 
Q 1235 3834 1158 3712 
Q 1082 3590 915 3590 
Q 774 3590 704 3680 
Q 634 3770 634 3910 
Q 634 4038 704 4176 
Q 774 4314 973 4410 
Q 1120 4480 1289 4512 
Q 1459 4544 1609 4550 
Q 1760 4557 1830 4557 
Q 2214 4557 2553 4512 
Q 2893 4467 3229 4422 
Q 3565 4378 3936 4378 
Q 4230 4378 4432 4413 
Q 4634 4448 4794 4538 
L 4787 4493 
Q 4723 4557 4662 4656 
Q 4602 4755 4602 4877 
Q 4602 5005 4678 5117 
Q 4755 5229 4915 5229 
z
M 2675 4422 
Q 2675 4422 2732 4416 
Q 2790 4410 2876 4397 
Q 2963 4384 3049 4371 
Q 3136 4358 3193 4352 
Q 3251 4346 3251 4346 
L 2291 742 
Q 2227 499 2240 368 
Q 2253 237 2377 185 
Q 2502 134 2771 128 
L 2746 0 
Q 2579 13 2323 16 
Q 2067 19 1792 19 
Q 1517 19 1264 16 
Q 1011 13 858 0 
L 883 128 
Q 1152 141 1302 195 
Q 1453 250 1539 381 
Q 1626 512 1696 742 
L 2675 4422 
z
" transform="scale(0.015625)"/>
      <path id="PlayfairDisplay-Italic-68" d="M 499 0 
L -58 0 
L 1210 4269 
Q 1274 4486 1194 4588 
Q 1114 4691 800 4691 
L 838 4826 
Q 1190 4832 1472 4899 
Q 1754 4966 1990 5088 
L 499 0 
z
M 678 947 
Q 922 1619 1142 2086 
Q 1363 2554 1580 2838 
Q 1798 3123 2028 3251 
Q 2259 3379 2509 3379 
Q 2810 3379 2922 3235 
Q 3034 3091 3021 2867 
Q 3008 2643 2931 2413 
L 2310 544 
Q 2259 378 2265 262 
Q 2272 147 2413 147 
Q 2534 147 2652 281 
Q 2771 416 2906 800 
L 2989 1037 
L 3110 1037 
L 2950 570 
Q 2861 301 2729 160 
Q 2598 19 2454 -35 
Q 2310 -90 2176 -90 
Q 1920 -90 1817 25 
Q 1715 141 1731 345 
Q 1747 550 1830 806 
L 2438 2637 
Q 2470 2733 2496 2861 
Q 2522 2989 2486 3081 
Q 2451 3174 2298 3174 
Q 2138 3174 1955 3030 
Q 1773 2886 1581 2617 
Q 1389 2349 1203 1971 
Q 1018 1594 848 1130 
Q 678 666 531 128 
L 678 947 
z
" transform="scale(0.015625)"/>
      <path id="PlayfairDisplay-Italic-6f" d="M 1946 3251 
Q 1741 3251 1552 3088 
Q 1363 2925 1206 2646 
Q 1050 2368 931 2022 
Q 813 1677 749 1305 
Q 685 934 685 595 
Q 685 307 777 172 
Q 870 38 1050 38 
Q 1254 38 1443 201 
Q 1632 365 1792 643 
Q 1952 922 2067 1267 
Q 2182 1613 2246 1981 
Q 2310 2349 2310 2694 
Q 2310 2989 2220 3120 
Q 2131 3251 1946 3251 
z
M 134 915 
Q 134 1197 211 1529 
Q 288 1862 441 2188 
Q 595 2515 816 2784 
Q 1037 3053 1331 3216 
Q 1626 3379 1984 3379 
Q 2381 3379 2621 3132 
Q 2861 2886 2861 2374 
Q 2861 2093 2784 1760 
Q 2707 1427 2553 1100 
Q 2400 774 2179 505 
Q 1958 237 1664 73 
Q 1370 -90 1011 -90 
Q 614 -90 374 160 
Q 134 410 134 915 
z
" transform="scale(0.015625)"/>
      <path id="PlayfairDisplay-Italic-75" d="M 2541 2214 
Q 2310 1574 2099 1132 
Q 1888 691 1680 422 
Q 1472 154 1257 32 
Q 1043 -90 813 -90 
Q 531 -90 403 38 
Q 275 166 275 384 
Q 275 602 365 877 
L 986 2746 
Q 1050 2938 1030 3040 
Q 1011 3142 883 3142 
Q 762 3142 643 3008 
Q 525 2874 390 2490 
L 307 2253 
L 186 2253 
L 346 2720 
Q 442 2989 573 3129 
Q 704 3270 848 3324 
Q 992 3379 1120 3379 
Q 1402 3379 1494 3248 
Q 1587 3117 1564 2912 
Q 1542 2707 1466 2483 
L 858 653 
Q 678 115 998 115 
Q 1152 115 1325 252 
Q 1498 390 1677 649 
Q 1856 909 2032 1270 
Q 2208 1632 2371 2077 
Q 2534 2522 2669 3034 
L 2541 2214 
z
M 2522 544 
Q 2477 371 2480 259 
Q 2483 147 2611 147 
Q 2752 147 2870 297 
Q 2989 448 3110 800 
L 3194 1037 
L 3315 1037 
L 3155 570 
Q 3066 301 2934 160 
Q 2803 19 2659 -35 
Q 2515 -90 2381 -90 
Q 2278 -90 2188 -45 
Q 2099 0 2054 83 
Q 2003 192 2019 358 
Q 2035 525 2106 806 
L 2733 3290 
Q 2893 3296 3043 3315 
Q 3194 3334 3315 3379 
L 2522 544 
z
" transform="scale(0.015625)"/>
      <path id="PlayfairDisplay-Italic-64" d="M 2362 544 
Q 2317 397 2326 272 
Q 2336 147 2477 147 
Q 2605 147 2713 291 
Q 2822 435 2944 800 
L 3021 1037 
L 3142 1037 
L 2995 570 
Q 2918 314 2790 170 
Q 2662 26 2521 -32 
Q 2381 -90 2253 -90 
Q 1869 -90 1850 275 
Q 1843 378 1865 512 
Q 1888 646 1933 806 
L 2854 4269 
Q 2912 4486 2835 4588 
Q 2758 4691 2445 4691 
L 2483 4826 
Q 2835 4832 3104 4899 
Q 3373 4966 3616 5088 
L 2362 544 
z
M 928 115 
Q 1088 115 1289 304 
Q 1491 493 1699 816 
Q 1907 1139 2083 1552 
Q 2259 1965 2362 2406 
L 2266 1715 
Q 2016 1056 1769 659 
Q 1523 262 1270 86 
Q 1018 -90 742 -90 
Q 544 -90 393 3 
Q 243 96 160 281 
Q 77 467 77 755 
Q 77 1062 176 1417 
Q 275 1773 460 2118 
Q 646 2464 905 2749 
Q 1165 3034 1478 3206 
Q 1792 3379 2144 3379 
Q 2291 3379 2419 3267 
Q 2547 3155 2560 2931 
L 2509 2803 
Q 2483 3034 2380 3133 
Q 2278 3232 2150 3232 
Q 1907 3232 1680 3065 
Q 1453 2899 1267 2624 
Q 1082 2349 941 2013 
Q 800 1677 723 1328 
Q 646 979 646 672 
Q 646 390 716 252 
Q 787 115 928 115 
z
" transform="scale(0.015625)"/>
      <path id="PlayfairDisplay-Italic-53" d="M 3686 4576 
Q 3622 4410 3516 4093 
Q 3411 3776 3309 3270 
L 3181 3270 
Q 3200 3360 3209 3456 
Q 3219 3552 3219 3635 
Q 3219 3872 3126 4067 
Q 3034 4262 2835 4380 
Q 2637 4499 2310 4499 
Q 1926 4499 1670 4300 
Q 1414 4102 1414 3686 
Q 1414 3443 1532 3235 
Q 1651 3027 1833 2838 
Q 2016 2650 2224 2461 
Q 2432 2272 2614 2073 
Q 2797 1875 2915 1654 
Q 3034 1434 3034 1165 
Q 3034 832 2886 595 
Q 2739 358 2502 208 
Q 2266 58 1981 -16 
Q 1696 -90 1414 -90 
Q 1158 -90 985 -42 
Q 813 6 697 76 
Q 582 147 506 205 
Q 435 262 374 281 
Q 314 301 275 301 
Q 192 301 137 214 
Q 83 128 13 -45 
L -115 -45 
Q -58 96 6 281 
Q 70 467 147 758 
Q 224 1050 320 1491 
L 448 1491 
Q 422 1357 403 1232 
Q 384 1107 390 973 
Q 410 538 659 288 
Q 909 38 1434 38 
Q 1850 38 2112 230 
Q 2374 422 2374 838 
Q 2374 1107 2268 1318 
Q 2163 1530 1993 1712 
Q 1824 1894 1635 2067 
Q 1446 2240 1276 2429 
Q 1107 2618 1001 2848 
Q 896 3078 896 3373 
Q 896 3680 1017 3913 
Q 1139 4147 1340 4304 
Q 1542 4461 1792 4541 
Q 2042 4621 2304 4621 
Q 2573 4621 2765 4557 
Q 2957 4493 3136 4352 
Q 3213 4294 3264 4265 
Q 3315 4237 3347 4237 
Q 3437 4237 3558 4576 
L 3686 4576 
z
" transform="scale(0.015625)"/>
      <path id="PlayfairDisplay-Italic-6d" d="M 774 0 
L 218 0 
L 986 2746 
Q 1005 2803 1021 2896 
Q 1037 2989 1017 3065 
Q 998 3142 896 3142 
Q 755 3142 640 2995 
Q 525 2848 397 2490 
L 314 2253 
L 192 2253 
L 352 2720 
Q 448 2989 579 3129 
Q 710 3270 854 3324 
Q 998 3379 1126 3379 
Q 1318 3379 1401 3292 
Q 1485 3206 1494 3068 
Q 1504 2931 1472 2777 
Q 1440 2624 1402 2483 
L 774 0 
z
M 2586 2637 
Q 2630 2771 2646 2892 
Q 2662 3014 2627 3094 
Q 2592 3174 2470 3174 
Q 2291 3174 2076 2953 
Q 1862 2733 1641 2339 
Q 1421 1946 1216 1424 
Q 1011 902 851 307 
L 1062 1331 
Q 1357 2099 1613 2547 
Q 1869 2995 2128 3187 
Q 2387 3379 2682 3379 
Q 2886 3379 2979 3286 
Q 3072 3194 3091 3046 
Q 3110 2899 3081 2732 
Q 3053 2566 3014 2413 
L 2362 0 
L 1786 0 
L 2586 2637 
z
M 4186 2637 
Q 4250 2835 4250 3004 
Q 4250 3174 4109 3174 
Q 3917 3174 3705 2950 
Q 3494 2726 3270 2313 
Q 3046 1901 2825 1347 
Q 2605 794 2400 128 
L 2547 947 
Q 2797 1613 3008 2077 
Q 3219 2541 3424 2829 
Q 3629 3117 3846 3248 
Q 4064 3379 4320 3379 
Q 4589 3379 4685 3225 
Q 4781 3072 4765 2851 
Q 4749 2630 4678 2413 
L 4058 544 
Q 3994 346 4013 246 
Q 4032 147 4160 147 
Q 4282 147 4400 281 
Q 4518 416 4653 800 
L 4736 1037 
L 4858 1037 
L 4698 570 
Q 4608 301 4477 160 
Q 4346 19 4202 -35 
Q 4058 -90 3923 -90 
Q 3763 -90 3670 -42 
Q 3578 6 3526 83 
Q 3450 205 3475 387 
Q 3501 570 3578 806 
L 4186 2637 
z
" transform="scale(0.015625)"/>
     </defs>
     <use xlink:href="#PlayfairDisplay-Italic-54"/>
     <use xlink:href="#PlayfairDisplay-Italic-68" transform="translate(65.899994 0)"/>
     <use xlink:href="#PlayfairDisplay-Italic-6f" transform="translate(119.499985 0)"/>
     <use xlink:href="#PlayfairDisplay-Italic-75" transform="translate(168.299973 0)"/>
     <use xlink:href="#PlayfairDisplay-Italic-67" transform="translate(224.999969 0)"/>
     <use xlink:href="#PlayfairDisplay-Italic-68" transform="translate(269.899963 0)"/>
     <use xlink:href="#PlayfairDisplay-Italic-74" transform="translate(323.499954 0)"/>
     <use xlink:href="#PlayfairDisplay-Italic-73" transform="translate(357.099945 0)"/>
     <use xlink:href="#PlayfairDisplay-Italic-20" transform="translate(395.199936 0)"/>
     <use xlink:href="#PlayfairDisplay-Italic-61" transform="translate(420.499924 0)"/>
     <use xlink:href="#PlayfairDisplay-Italic-6e" transform="translate(472.799911 0)"/>
     <use xlink:href="#PlayfairDisplay-Italic-64" transform="translate(530.799896 0)"/>
     <use xlink:href="#PlayfairDisplay-Italic-20" transform="translate(584.999893 0)"/>
     <use xlink:href="#PlayfairDisplay-Italic-53" transform="translate(610.299881 0)"/>
     <use xlink:href="#PlayfairDisplay-Italic-65" transform="translate(665.699875 0)"/>
     <use xlink:href="#PlayfairDisplay-Italic-6e" transform="translate(708.599869 0)"/>
     <use xlink:href="#PlayfairDisplay-Italic-74" transform="translate(766.599854 0)"/>
     <use xlink:href="#PlayfairDisplay-Italic-69" transform="translate(800.199844 0)"/>
     <use xlink:href="#PlayfairDisplay-Italic-6d" transform="translate(830.399841 0)"/>
     <use xlink:href="#PlayfairDisplay-Italic-65" transform="translate(911.299835 0)"/>
     <use xlink:href="#PlayfairDisplay-Italic-6e" transform="translate(954.199829 0)"/>
     <use xlink:href="#PlayfairDisplay-Italic-74" transform="translate(1012.199814 0)"/>
     <use xlink:href="#PlayfairDisplay-Italic-73" transform="translate(1045.799805 0)"/>
    </g>
   </g>
   <g id="text_6">
    <!-- Cugoano,  -->
    <g transform="translate(190.944636 210.08068) rotate(-316.506166) scale(0.18 -0.18)">
     <defs>
      <path id="PlayfairDisplay-Regular-43" d="M 2374 4621 
Q 2797 4621 3069 4496 
Q 3341 4371 3552 4205 
Q 3680 4109 3747 4182 
Q 3814 4256 3840 4531 
L 3987 4531 
Q 3974 4294 3968 3955 
Q 3962 3616 3962 3059 
L 3814 3059 
Q 3770 3334 3731 3497 
Q 3693 3661 3638 3776 
Q 3584 3891 3494 4006 
Q 3296 4269 2995 4387 
Q 2694 4506 2362 4506 
Q 2048 4506 1795 4349 
Q 1542 4192 1360 3897 
Q 1178 3603 1078 3187 
Q 979 2771 979 2253 
Q 979 1715 1088 1302 
Q 1197 890 1392 608 
Q 1587 326 1852 182 
Q 2118 38 2426 38 
Q 2714 38 3027 153 
Q 3341 269 3520 525 
Q 3661 710 3715 928 
Q 3770 1146 3814 1536 
L 3962 1536 
Q 3962 954 3968 598 
Q 3974 243 3987 0 
L 3840 0 
Q 3814 275 3753 345 
Q 3693 416 3552 326 
Q 3315 160 3049 35 
Q 2784 -90 2368 -90 
Q 1760 -90 1302 185 
Q 845 461 592 979 
Q 339 1498 339 2227 
Q 339 2944 601 3481 
Q 864 4019 1321 4320 
Q 1779 4621 2374 4621 
z
" transform="scale(0.015625)"/>
      <path id="PlayfairDisplay-Regular-67" d="M 1363 -1203 
Q 1024 -1203 723 -1132 
Q 422 -1062 240 -912 
Q 58 -762 58 -531 
Q 58 -307 237 -147 
Q 416 13 723 96 
L 762 -6 
Q 621 -51 537 -185 
Q 454 -320 454 -486 
Q 454 -781 726 -937 
Q 998 -1094 1434 -1094 
Q 1722 -1094 1997 -1020 
Q 2272 -947 2451 -774 
Q 2630 -602 2630 -320 
Q 2630 -109 2480 28 
Q 2330 166 1888 166 
L 1414 166 
Q 1210 166 1018 198 
Q 826 230 704 332 
Q 582 435 582 646 
Q 582 864 761 1065 
Q 941 1267 1421 1478 
L 1498 1421 
Q 1280 1306 1120 1187 
Q 960 1069 960 909 
Q 960 704 1267 704 
L 2067 704 
Q 2336 704 2563 627 
Q 2790 550 2931 384 
Q 3072 218 3072 -51 
Q 3072 -352 2880 -614 
Q 2688 -877 2307 -1040 
Q 1926 -1203 1363 -1203 
z
M 1395 1363 
Q 1082 1363 826 1468 
Q 570 1574 422 1798 
Q 275 2022 275 2374 
Q 275 2726 422 2950 
Q 570 3174 826 3280 
Q 1082 3386 1395 3386 
Q 1715 3386 1968 3280 
Q 2221 3174 2368 2950 
Q 2515 2726 2515 2374 
Q 2515 2022 2368 1798 
Q 2221 1574 1968 1468 
Q 1715 1363 1395 1363 
z
M 1395 1478 
Q 1638 1478 1776 1670 
Q 1914 1862 1914 2374 
Q 1914 2886 1776 3078 
Q 1638 3270 1395 3270 
Q 1158 3270 1017 3078 
Q 877 2886 877 2374 
Q 877 1862 1017 1670 
Q 1158 1478 1395 1478 
z
M 2317 2854 
L 2202 2899 
Q 2291 3117 2508 3283 
Q 2726 3450 2963 3450 
Q 3130 3450 3232 3357 
Q 3334 3264 3334 3078 
Q 3334 2880 3228 2800 
Q 3123 2720 3014 2720 
Q 2918 2720 2835 2787 
Q 2752 2854 2739 3001 
Q 2726 3149 2829 3379 
L 2912 3360 
Q 2643 3258 2528 3146 
Q 2413 3034 2317 2854 
z
" transform="scale(0.015625)"/>
     </defs>
     <use xlink:href="#PlayfairDisplay-Regular-43"/>
     <use xlink:href="#PlayfairDisplay-Regular-75" transform="translate(68.799988 0)"/>
     <use xlink:href="#PlayfairDisplay-Regular-67" transform="translate(126.899979 0)"/>
     <use xlink:href="#PlayfairDisplay-Regular-6f" transform="translate(179.699966 0)"/>
     <use xlink:href="#PlayfairDisplay-Regular-61" transform="translate(234.499954 0)"/>
     <use xlink:href="#PlayfairDisplay-Regular-6e" transform="translate(284.299942 0)"/>
     <use xlink:href="#PlayfairDisplay-Regular-6f" transform="translate(343.999939 0)"/>
     <use xlink:href="#PlayfairDisplay-Regular-2c" transform="translate(398.799927 0)"/>
     <use xlink:href="#PlayfairDisplay-Regular-20" transform="translate(424.899918 0)"/>
    </g>
   </g>
   <g id="text_7">
    <!-- 1,181 -->
    <g style="fill: #ffffff" transform="translate(785.779892 491.057328) scale(0.147 -0.147)">
     <defs>
      <path id="Roboto-Regular-31" d="M 2278 4575 
L 2278 0 
L 1700 0 
L 1700 3853 
L 534 3428 
L 534 3950 
L 2188 4575 
L 2278 4575 
z
" transform="scale(0.015625)"/>
      <path id="Roboto-Regular-2c" d="M 966 688 
L 966 222 
Q 966 -63 822 -380 
Q 678 -697 419 -909 
L 91 -681 
Q 191 -544 259 -401 
Q 328 -259 364 -107 
Q 400 44 400 213 
L 400 688 
L 966 688 
z
" transform="scale(0.015625)"/>
      <path id="Roboto-Regular-38" d="M 3247 1231 
Q 3247 816 3055 527 
Q 2863 238 2536 87 
Q 2209 -63 1800 -63 
Q 1391 -63 1062 87 
Q 734 238 543 527 
Q 353 816 353 1231 
Q 353 1503 458 1729 
Q 563 1956 755 2125 
Q 947 2294 1211 2386 
Q 1475 2478 1794 2478 
Q 2213 2478 2541 2317 
Q 2869 2156 3058 1875 
Q 3247 1594 3247 1231 
z
M 2666 1244 
Q 2666 1497 2556 1692 
Q 2447 1888 2250 1997 
Q 2053 2106 1794 2106 
Q 1528 2106 1336 1997 
Q 1144 1888 1037 1692 
Q 931 1497 931 1244 
Q 931 981 1036 795 
Q 1141 609 1336 511 
Q 1531 413 1800 413 
Q 2069 413 2262 511 
Q 2456 609 2561 795 
Q 2666 981 2666 1244 
z
M 3141 3366 
Q 3141 3034 2966 2768 
Q 2791 2503 2487 2350 
Q 2184 2197 1800 2197 
Q 1409 2197 1104 2350 
Q 800 2503 628 2768 
Q 456 3034 456 3366 
Q 456 3763 629 4041 
Q 803 4319 1106 4466 
Q 1409 4613 1797 4613 
Q 2188 4613 2491 4466 
Q 2794 4319 2967 4041 
Q 3141 3763 3141 3366 
z
M 2563 3356 
Q 2563 3584 2466 3759 
Q 2369 3934 2197 4036 
Q 2025 4138 1797 4138 
Q 1569 4138 1398 4042 
Q 1228 3947 1133 3772 
Q 1038 3597 1038 3356 
Q 1038 3122 1133 2947 
Q 1228 2772 1400 2675 
Q 1572 2578 1800 2578 
Q 2028 2578 2198 2675 
Q 2369 2772 2466 2947 
Q 2563 3122 2563 3356 
z
" transform="scale(0.015625)"/>
     </defs>
     <use xlink:href="#Roboto-Regular-31"/>
     <use xlink:href="#Roboto-Regular-2c" transform="translate(56.201172 0)"/>
     <use xlink:href="#Roboto-Regular-31" transform="translate(75.878906 0)"/>
     <use xlink:href="#Roboto-Regular-38" transform="translate(132.080078 0)"/>
     <use xlink:href="#Roboto-Regular-31" transform="translate(188.28125 0)"/>
    </g>
   </g>
   <g id="text_8">
    <!-- 1,597 -->
    <g style="fill: #ffffff" transform="translate(489.050782 803.811964) scale(0.147 -0.147)">
     <defs>
      <path id="Roboto-Regular-35" d="M 1109 2166 
L 647 2284 
L 875 4550 
L 3209 4550 
L 3209 4016 
L 1366 4016 
L 1228 2778 
Q 1353 2850 1545 2912 
Q 1738 2975 1988 2975 
Q 2303 2975 2553 2867 
Q 2803 2759 2979 2559 
Q 3156 2359 3250 2078 
Q 3344 1797 3344 1450 
Q 3344 1122 3255 847 
Q 3166 572 2987 367 
Q 2809 163 2539 50 
Q 2269 -63 1903 -63 
Q 1628 -63 1383 14 
Q 1138 91 945 248 
Q 753 406 633 642 
Q 513 878 481 1197 
L 1031 1197 
Q 1069 941 1181 766 
Q 1294 591 1476 502 
Q 1659 413 1903 413 
Q 2109 413 2268 484 
Q 2428 556 2537 690 
Q 2647 825 2705 1015 
Q 2763 1206 2763 1444 
Q 2763 1659 2703 1843 
Q 2644 2028 2526 2165 
Q 2409 2303 2240 2379 
Q 2072 2456 1853 2456 
Q 1563 2456 1414 2378 
Q 1266 2300 1109 2166 
z
" transform="scale(0.015625)"/>
      <path id="Roboto-Regular-39" d="M 953 484 
L 1013 484 
Q 1513 484 1825 625 
Q 2138 766 2306 1003 
Q 2475 1241 2537 1539 
Q 2600 1838 2600 2153 
L 2600 2850 
Q 2600 3159 2529 3400 
Q 2459 3641 2336 3803 
Q 2213 3966 2056 4050 
Q 1900 4134 1725 4134 
Q 1525 4134 1367 4054 
Q 1209 3975 1101 3831 
Q 994 3688 937 3494 
Q 881 3300 881 3072 
Q 881 2869 931 2678 
Q 981 2488 1084 2334 
Q 1188 2181 1342 2092 
Q 1497 2003 1706 2003 
Q 1900 2003 2070 2079 
Q 2241 2156 2373 2289 
Q 2506 2422 2586 2590 
Q 2666 2759 2678 2944 
L 2953 2944 
Q 2953 2684 2851 2432 
Q 2750 2181 2569 1975 
Q 2388 1769 2144 1645 
Q 1900 1522 1613 1522 
Q 1275 1522 1028 1653 
Q 781 1784 623 2003 
Q 466 2222 389 2492 
Q 313 2763 313 3041 
Q 313 3366 403 3650 
Q 494 3934 672 4151 
Q 850 4369 1114 4491 
Q 1378 4613 1725 4613 
Q 2116 4613 2391 4456 
Q 2666 4300 2839 4037 
Q 3013 3775 3094 3447 
Q 3175 3119 3175 2772 
L 3175 2563 
Q 3175 2209 3129 1845 
Q 3084 1481 2957 1150 
Q 2831 819 2590 558 
Q 2350 297 1964 145 
Q 1578 -6 1013 -6 
L 953 -6 
L 953 484 
z
" transform="scale(0.015625)"/>
      <path id="Roboto-Regular-37" d="M 3319 4550 
L 3319 4225 
L 1434 0 
L 825 0 
L 2706 4075 
L 244 4075 
L 244 4550 
L 3319 4550 
z
" transform="scale(0.015625)"/>
     </defs>
     <use xlink:href="#Roboto-Regular-31"/>
     <use xlink:href="#Roboto-Regular-2c" transform="translate(56.201172 0)"/>
     <use xlink:href="#Roboto-Regular-35" transform="translate(75.878906 0)"/>
     <use xlink:href="#Roboto-Regular-39" transform="translate(132.080078 0)"/>
     <use xlink:href="#Roboto-Regular-37" transform="translate(188.28125 0)"/>
    </g>
   </g>
   <g id="text_9">
    <!-- 167 -->
    <g style="fill: #ffffff" transform="translate(408.664636 425.114058) scale(0.147 -0.147)">
     <defs>
      <path id="Roboto-Regular-36" d="M 2597 4556 
L 2647 4556 
L 2647 4066 
L 2597 4066 
Q 2138 4066 1828 3917 
Q 1519 3769 1337 3520 
Q 1156 3272 1076 2962 
Q 997 2653 997 2334 
L 997 1666 
Q 997 1363 1069 1130 
Q 1141 897 1266 737 
Q 1391 578 1548 497 
Q 1706 416 1878 416 
Q 2078 416 2234 492 
Q 2391 569 2498 708 
Q 2606 847 2662 1037 
Q 2719 1228 2719 1456 
Q 2719 1659 2669 1848 
Q 2619 2038 2516 2186 
Q 2413 2334 2258 2420 
Q 2103 2506 1891 2506 
Q 1650 2506 1442 2389 
Q 1234 2272 1101 2083 
Q 969 1894 950 1672 
L 644 1675 
Q 688 2025 808 2273 
Q 928 2522 1108 2680 
Q 1288 2838 1511 2911 
Q 1734 2984 1984 2984 
Q 2325 2984 2572 2856 
Q 2819 2728 2978 2514 
Q 3138 2300 3214 2033 
Q 3291 1766 3291 1484 
Q 3291 1163 3200 881 
Q 3109 600 2929 387 
Q 2750 175 2487 56 
Q 2225 -63 1878 -63 
Q 1509 -63 1234 89 
Q 959 241 778 494 
Q 597 747 506 1056 
Q 416 1366 416 1684 
L 416 1956 
Q 416 2438 512 2900 
Q 609 3363 848 3738 
Q 1088 4113 1513 4334 
Q 1938 4556 2597 4556 
z
" transform="scale(0.015625)"/>
     </defs>
     <use xlink:href="#Roboto-Regular-31"/>
     <use xlink:href="#Roboto-Regular-36" transform="translate(56.201172 0)"/>
     <use xlink:href="#Roboto-Regular-37" transform="translate(112.402344 0)"/>
    </g>
   </g>
   <g id="patch_2">
    <path d="M 590.4 698.475789 
C 621.353389 698.475789 651.043175 686.177878 672.930526 664.290526 
C 694.817878 642.403175 707.115789 612.713389 707.115789 581.76 
C 707.115789 550.806611 694.817878 521.116825 672.930526 499.229474 
C 651.043175 477.342122 621.353389 465.044211 590.4 465.044211 
C 559.446611 465.044211 529.756825 477.342122 507.869474 499.229474 
C 485.982122 521.116825 473.684211 550.806611 473.684211 581.76 
C 473.684211 612.713389 485.982122 642.403175 507.869474 664.290526 
C 529.756825 686.177878 559.446611 698.475789 590.4 698.475789 
z
" clip-path="url(#pdf4669eb6f)" style="fill: #ffffff; opacity: 0.6"/>
   </g>
   <g id="text_10">
    <!-- Books -->
    <g transform="translate(555.092813 561.361375) scale(0.26 -0.26)">
     <defs>
      <path id="PlayfairDisplay-Regular-42" d="M 269 4531 
Q 403 4525 620 4518 
Q 838 4512 1050 4512 
Q 1350 4512 1625 4518 
Q 1901 4525 2016 4525 
Q 2688 4525 3027 4243 
Q 3366 3962 3366 3520 
Q 3366 3296 3273 3081 
Q 3181 2867 2966 2691 
Q 2752 2515 2394 2406 
L 2394 2394 
Q 2899 2330 3184 2154 
Q 3469 1978 3584 1741 
Q 3699 1504 3699 1242 
Q 3699 877 3516 598 
Q 3334 320 2988 160 
Q 2643 0 2163 0 
Q 2022 0 1740 9 
Q 1459 19 1062 19 
Q 838 19 620 16 
Q 403 13 269 0 
L 269 128 
Q 486 141 598 179 
Q 710 218 748 333 
Q 787 448 787 678 
L 787 3853 
Q 787 4090 748 4202 
Q 710 4314 598 4355 
Q 486 4397 269 4403 
L 269 4531 
z
M 1856 4403 
Q 1562 4403 1472 4294 
Q 1382 4186 1382 3853 
L 1382 678 
Q 1382 454 1420 339 
Q 1459 224 1561 185 
Q 1664 147 1862 147 
Q 2490 147 2774 438 
Q 3059 730 3059 1267 
Q 3059 1760 2793 2029 
Q 2528 2298 1920 2298 
L 1261 2298 
Q 1261 2298 1261 2352 
Q 1261 2406 1261 2406 
L 1811 2406 
Q 2189 2406 2393 2550 
Q 2598 2694 2675 2934 
Q 2752 3174 2752 3450 
Q 2752 3923 2544 4163 
Q 2336 4403 1856 4403 
z
" transform="scale(0.015625)"/>
      <path id="PlayfairDisplay-Regular-6b" d="M 1190 5018 
L 1190 595 
Q 1190 326 1286 230 
Q 1382 134 1613 134 
L 1613 0 
Q 1510 6 1308 16 
Q 1107 26 902 26 
Q 685 26 461 16 
Q 237 6 128 0 
L 128 134 
Q 390 134 502 230 
Q 614 326 614 595 
L 614 4250 
Q 614 4538 512 4675 
Q 410 4813 128 4813 
L 128 4947 
Q 333 4928 525 4928 
Q 710 4928 880 4950 
Q 1050 4973 1190 5018 
z
M 3226 3296 
L 3226 3168 
Q 3066 3155 2925 3081 
Q 2784 3008 2650 2867 
L 1747 1920 
L 1837 2099 
L 3027 467 
Q 3136 320 3235 237 
Q 3334 154 3475 134 
L 3475 0 
Q 3405 6 3254 16 
Q 3104 26 2957 26 
Q 2758 26 2553 16 
Q 2349 6 2246 0 
L 2246 134 
Q 2374 134 2425 198 
Q 2477 262 2406 352 
L 1670 1427 
Q 1549 1600 1449 1651 
Q 1350 1702 1165 1709 
L 1165 1837 
Q 1370 1862 1498 1923 
Q 1626 1984 1741 2106 
L 2214 2598 
Q 2419 2810 2419 2934 
Q 2419 3059 2288 3113 
Q 2157 3168 1946 3168 
L 1946 3296 
Q 2112 3290 2320 3280 
Q 2528 3270 2669 3270 
Q 2778 3270 2880 3273 
Q 2982 3277 3072 3283 
Q 3162 3290 3226 3296 
z
" transform="scale(0.015625)"/>
      <path id="PlayfairDisplay-Regular-73" d="M 1331 3386 
Q 1587 3386 1766 3302 
Q 1946 3219 2029 3149 
Q 2240 2976 2285 3379 
L 2432 3379 
Q 2419 3200 2412 2953 
Q 2406 2707 2406 2291 
L 2259 2291 
Q 2221 2528 2128 2752 
Q 2035 2976 1856 3120 
Q 1677 3264 1389 3264 
Q 1165 3264 1014 3139 
Q 864 3014 864 2771 
Q 864 2579 979 2441 
Q 1094 2304 1280 2185 
Q 1466 2067 1683 1926 
Q 1926 1773 2124 1613 
Q 2323 1453 2441 1261 
Q 2560 1069 2560 806 
Q 2560 512 2406 313 
Q 2253 115 2006 12 
Q 1760 -90 1466 -90 
Q 1325 -90 1200 -67 
Q 1075 -45 960 0 
Q 896 32 829 77 
Q 762 122 698 173 
Q 634 224 582 169 
Q 531 115 506 -45 
L 358 -45 
Q 371 160 377 454 
Q 384 749 384 1235 
L 531 1235 
Q 576 877 659 608 
Q 742 339 921 188 
Q 1101 38 1421 38 
Q 1549 38 1680 96 
Q 1811 154 1900 288 
Q 1990 422 1990 646 
Q 1990 928 1785 1107 
Q 1581 1286 1267 1485 
Q 1037 1632 835 1779 
Q 634 1926 509 2112 
Q 384 2298 384 2560 
Q 384 2848 515 3030 
Q 646 3213 864 3299 
Q 1082 3386 1331 3386 
z
" transform="scale(0.015625)"/>
     </defs>
     <use xlink:href="#PlayfairDisplay-Regular-42"/>
     <use xlink:href="#PlayfairDisplay-Regular-6f" transform="translate(62.299988 0)"/>
     <use xlink:href="#PlayfairDisplay-Regular-6f" transform="translate(117.099976 0)"/>
     <use xlink:href="#PlayfairDisplay-Regular-6b" transform="translate(171.899963 0)"/>
     <use xlink:href="#PlayfairDisplay-Regular-73" transform="translate(226.899948 0)"/>
    </g>
    <!-- linked by -->
    <g transform="translate(536.724219 589.509219) scale(0.26 -0.26)">
     <defs>
      <path id="PlayfairDisplay-Regular-6c" d="M 1203 5018 
L 1203 595 
Q 1203 326 1315 230 
Q 1427 134 1690 134 
L 1690 0 
Q 1581 6 1360 16 
Q 1139 26 915 26 
Q 698 26 474 16 
Q 250 6 141 0 
L 141 134 
Q 403 134 515 230 
Q 627 326 627 595 
L 627 4250 
Q 627 4538 524 4675 
Q 422 4813 141 4813 
L 141 4947 
Q 346 4928 538 4928 
Q 723 4928 892 4950 
Q 1062 4973 1203 5018 
z
" transform="scale(0.015625)"/>
      <path id="PlayfairDisplay-Regular-65" d="M 1741 3386 
Q 2304 3386 2621 3043 
Q 2938 2701 2938 1978 
L 678 1978 
L 672 2099 
L 2323 2099 
Q 2336 2413 2272 2678 
Q 2208 2944 2070 3104 
Q 1933 3264 1715 3264 
Q 1421 3264 1193 2969 
Q 966 2675 922 2035 
L 941 2010 
Q 928 1914 921 1798 
Q 915 1683 915 1568 
Q 915 1133 1056 819 
Q 1197 506 1424 342 
Q 1651 179 1894 179 
Q 2086 179 2259 240 
Q 2432 301 2579 441 
Q 2726 582 2835 819 
L 2963 768 
Q 2893 557 2733 358 
Q 2573 160 2329 35 
Q 2086 -90 1766 -90 
Q 1306 -90 976 121 
Q 646 333 470 707 
Q 294 1082 294 1568 
Q 294 2131 473 2537 
Q 653 2944 979 3165 
Q 1306 3386 1741 3386 
z
" transform="scale(0.015625)"/>
      <path id="PlayfairDisplay-Regular-64" d="M 3098 5018 
L 3098 698 
Q 3098 410 3203 272 
Q 3309 134 3584 134 
L 3584 0 
Q 3386 19 3187 19 
Q 3002 19 2832 0 
Q 2662 -19 2522 -70 
L 2522 4250 
Q 2522 4538 2419 4675 
Q 2317 4813 2035 4813 
L 2035 4947 
Q 2240 4928 2432 4928 
Q 2618 4928 2787 4950 
Q 2957 4973 3098 5018 
z
M 1754 3386 
Q 2035 3386 2281 3251 
Q 2528 3117 2611 2790 
L 2528 2726 
Q 2438 2995 2249 3116 
Q 2061 3238 1805 3238 
Q 1427 3238 1174 2848 
Q 922 2458 928 1645 
Q 928 1126 1027 784 
Q 1126 442 1321 272 
Q 1517 102 1798 102 
Q 2067 102 2284 332 
Q 2502 563 2547 1011 
L 2624 922 
Q 2573 435 2313 172 
Q 2054 -90 1613 -90 
Q 1216 -90 918 102 
Q 621 294 464 678 
Q 307 1062 307 1645 
Q 307 2227 508 2614 
Q 710 3002 1040 3194 
Q 1370 3386 1754 3386 
z
" transform="scale(0.015625)"/>
      <path id="PlayfairDisplay-Regular-62" d="M 2086 3386 
Q 2611 3386 2956 2954 
Q 3302 2522 3302 1645 
Q 3302 1069 3107 681 
Q 2912 294 2585 102 
Q 2259 -90 1875 -90 
Q 1555 -90 1257 92 
Q 960 275 813 634 
L 941 563 
Q 1101 307 1337 182 
Q 1574 58 1824 58 
Q 2253 58 2467 445 
Q 2682 832 2682 1645 
Q 2682 2163 2598 2508 
Q 2515 2854 2342 3024 
Q 2170 3194 1901 3194 
Q 1606 3194 1353 2928 
Q 1101 2662 1043 2150 
L 966 2240 
Q 1037 2784 1347 3085 
Q 1658 3386 2086 3386 
z
M 1088 5011 
L 1088 333 
Q 1005 262 918 188 
Q 832 115 749 44 
Q 666 -26 576 -102 
L 467 -58 
Q 493 32 502 125 
Q 512 218 512 314 
L 512 4243 
Q 512 4531 409 4668 
Q 307 4806 26 4806 
L 26 4941 
Q 230 4922 422 4922 
Q 608 4922 777 4944 
Q 947 4966 1088 5011 
z
" transform="scale(0.015625)"/>
      <path id="PlayfairDisplay-Regular-79" d="M 3162 3296 
L 3162 3168 
Q 3040 3155 2937 3059 
Q 2835 2963 2746 2720 
L 1696 -32 
L 1587 -32 
L 410 2803 
Q 288 3053 169 3107 
Q 51 3162 -26 3162 
L -26 3296 
Q 115 3277 268 3267 
Q 422 3258 602 3258 
Q 800 3258 1021 3270 
Q 1242 3283 1434 3296 
L 1434 3162 
Q 1274 3162 1149 3139 
Q 1024 3117 992 3005 
Q 960 2893 1069 2624 
L 1856 672 
L 1818 659 
L 2547 2566 
Q 2630 2778 2614 2902 
Q 2598 3027 2483 3091 
Q 2368 3155 2138 3168 
L 2138 3296 
Q 2253 3290 2336 3286 
Q 2419 3283 2499 3280 
Q 2579 3277 2675 3277 
Q 2822 3277 2940 3283 
Q 3059 3290 3162 3296 
z
M 1696 -32 
L 1478 -589 
Q 1414 -749 1347 -857 
Q 1280 -966 1203 -1037 
Q 1101 -1133 960 -1168 
Q 819 -1203 704 -1203 
Q 582 -1203 483 -1158 
Q 384 -1114 326 -1027 
Q 269 -941 269 -819 
Q 269 -666 358 -573 
Q 448 -480 608 -480 
Q 742 -480 838 -557 
Q 934 -634 934 -781 
Q 934 -890 883 -960 
Q 832 -1030 762 -1069 
Q 774 -1075 784 -1075 
Q 794 -1075 800 -1075 
Q 973 -1075 1107 -956 
Q 1242 -838 1344 -576 
L 1574 19 
L 1696 -32 
z
" transform="scale(0.015625)"/>
     </defs>
     <use xlink:href="#PlayfairDisplay-Regular-6c"/>
     <use xlink:href="#PlayfairDisplay-Regular-69" transform="translate(28.599991 0)"/>
     <use xlink:href="#PlayfairDisplay-Regular-6e" transform="translate(57.899979 0)"/>
     <use xlink:href="#PlayfairDisplay-Regular-6b" transform="translate(117.599976 0)"/>
     <use xlink:href="#PlayfairDisplay-Regular-65" transform="translate(172.59996 0)"/>
     <use xlink:href="#PlayfairDisplay-Regular-64" transform="translate(223.199951 0)"/>
     <use xlink:href="#PlayfairDisplay-Regular-20" transform="translate(281.299942 0)"/>
     <use xlink:href="#PlayfairDisplay-Regular-62" transform="translate(306.199936 0)"/>
     <use xlink:href="#PlayfairDisplay-Regular-79" transform="translate(362.499924 0)"/>
    </g>
    <!-- subscribers -->
    <g transform="translate(522.503438 617.839875) scale(0.26 -0.26)">
     <defs>
      <path id="PlayfairDisplay-Regular-72" d="M 2176 3386 
Q 2349 3386 2480 3315 
Q 2611 3245 2684 3133 
Q 2758 3021 2758 2880 
Q 2758 2720 2659 2598 
Q 2560 2477 2394 2477 
Q 2259 2477 2156 2563 
Q 2054 2650 2054 2810 
Q 2054 2931 2121 3017 
Q 2189 3104 2272 3155 
Q 2227 3219 2138 3219 
Q 1939 3219 1772 3100 
Q 1606 2982 1491 2796 
Q 1376 2611 1312 2403 
Q 1248 2195 1248 2016 
L 1248 659 
Q 1248 346 1430 240 
Q 1613 134 1926 134 
L 1926 0 
Q 1779 6 1510 16 
Q 1242 26 941 26 
Q 723 26 508 16 
Q 294 6 186 0 
L 186 134 
Q 448 134 560 230 
Q 672 326 672 595 
L 672 2598 
Q 672 2886 569 3024 
Q 467 3162 186 3162 
L 186 3296 
Q 390 3277 582 3277 
Q 768 3277 937 3299 
Q 1107 3322 1248 3366 
L 1248 2566 
Q 1318 2752 1449 2941 
Q 1581 3130 1766 3258 
Q 1952 3386 2176 3386 
z
" transform="scale(0.015625)"/>
     </defs>
     <use xlink:href="#PlayfairDisplay-Regular-73"/>
     <use xlink:href="#PlayfairDisplay-Regular-75" transform="translate(44.699997 0)"/>
     <use xlink:href="#PlayfairDisplay-Regular-62" transform="translate(102.799988 0)"/>
     <use xlink:href="#PlayfairDisplay-Regular-73" transform="translate(159.099976 0)"/>
     <use xlink:href="#PlayfairDisplay-Regular-63" transform="translate(203.799973 0)"/>
     <use xlink:href="#PlayfairDisplay-Regular-72" transform="translate(252.399963 0)"/>
     <use xlink:href="#PlayfairDisplay-Regular-69" transform="translate(296.899948 0)"/>
     <use xlink:href="#PlayfairDisplay-Regular-62" transform="translate(326.199936 0)"/>
     <use xlink:href="#PlayfairDisplay-Regular-65" transform="translate(382.499924 0)"/>
     <use xlink:href="#PlayfairDisplay-Regular-72" transform="translate(433.099915 0)"/>
     <use xlink:href="#PlayfairDisplay-Regular-73" transform="translate(477.599899 0)"/>
    </g>
   </g>
  </g>
 </g>
 <defs>
  <clipPath id="pdf4669eb6f">
   <rect x="146.88" y="138.24" width="887.04" height="887.04"/>
  </clipPath>
 </defs>
</svg>
