<svg fill="none" height="550" viewBox="0 0 1023 550" width="1023" xmlns="http://www.w3.org/2000/svg"><path d="m1021.05 152.367c13.9 69.545-49.049 89.999-107.909 89.181-26.977 0-53.954-4.091-71.122-9-16.35 3.273-53.137 6.545-68.669 4.091 34.334 28.636 23.707 78.545-13.898 94.908 15.533 40.909-24.525 64.636-52.319 73.636.817 3.273.817 8.182 0 10.636-8.993 27-56.408 58.091-89.107 54.818-35.97-3.273-70.305-21.273-78.48-53.181-44.144 2.454-73.574 3.272-112.814.818-11.445-.818-22.89-1.637-33.517-3.273-16.35 33.545-42.51 55.636-76.027 55.636h-4.905c-24.525 54.818-80.115 79.363-134.887 79.363-62.947 0-114.4489-36.818-114.4489-109.635 0-22.909 17.1673-52.364 29.4298-61.364-40.8748.819-92.3769-39.272-92.3769-99.817 0-66.272 53.1371-104.726 92.3769-107.181-21.2549-15.545-31.8823-45.818-29.4298-69.545 5.7224-65.4539 71.1219-105.54444 142.2439-102.271779 68.67 2.454539 125.077 30.272479 134.887 92.453879 28.612 6.5453 51.502 30.2729 55.589 44.1809 42.51-11.454 80.932-35.181 124.259-44.9991 24.525-5.7273 49.05-15.5454 73.575-14.7272 22.072 0 45.78 8.9999 66.217 9.8181 40.057 1.6364 106.274 19.6362 140.609 31.9092 5.722 1.636 37.605 3.272 48.232 4.091 35.97 4.09 65.4 12.272 71.94 15.545 13.08 2.454 39.239 0 65.399 5.727 22.892 4.909 28.612 5.727 31.882 4.909zm-35.152 52.363c-44.962 0-76.027-9-86.654-46.636-9.81-4.091-53.137-13.091-70.305-12.273-13.08.819-32.699-.818-41.692-4.09-39.24-13.909-101.369-28.637-125.077-28.637-19.619 0-40.057-8.181-59.677-8.181-66.217 0-129.981 36.818-187.206 52.363-34.335 9-50.685 14.727-67.852 17.182-17.167 2.454-35.152 5.727-67.852 3.272-13.08 40.091-17.985 72.818-19.62 107.999-1.635 23.727.818 61.364 4.905 77.727 9.81 4.091 23.707 4.909 34.335 4.909-.818-7.363-1.635-13.909 3.27-26.182.817.819 1.635 0 2.452.819 18.803 20.454 35.153 30.272 50.685 36.818 22.072 10.636 44.962 12.272 72.757 13.909 36.787 2.454 81.749.818 123.442-2.455 17.167-.818 69.487 0 76.844 30.272l-19.62-4.09c-13.897-2.455-31.882-2.455-40.874-1.637 3.27 16.364 29.429 31.909 53.954 33.545 17.985.819 56.407-16.363 56.407-41.726 0-30.273-46.597-45.818-76.027-55.636-18.802-6.546-26.16-18-30.247-31.091l1.635-2.455c26.977 5.728 53.137 16.364 73.574 24.546 25.343 9.818 48.233 27.818 53.955 41.727 14.715-4.909 34.335-17.182 34.335-34.364 0-31.09-75.21-57.272-98.099-63.817-20.438-5.728-28.613-22.909-27.795-31.091l1.635-1.636c14.715 2.454 34.334 8.181 53.137 14.727 31.882 11.454 68.669 27.818 82.567 44.999 10.627-2.454 18.802-17.181 19.62-27.818 4.087-34.363-54.772-55.636-123.442-70.363-10.627-2.454-26.16-8.181-32.7-26.999l1.635-3.273c10.628 4.091 21.255 6.545 43.327 9-1.635-2.455-1.635-8.182-.817-11.455l1.635-.818c26.16 20.455 77.662 30.273 111.179 34.363 12.263 1.637 46.597-.818 53.955-2.454-1.635-2.455-4.088-7.364-4.905-13.091l1.635-1.636c17.985 11.454 58.859 20.454 92.377 20.454 38.422 0 61.312-3.273 75.209-14.727zm-671.163-112.0899c-10.627-38.4543-55.589-62.1814-111.179-64.6359-49.05-1.6364-95.647 18.818-103.8217 71.9998-4.905 35.181 4.9047 61.363 27.7947 74.454 4.905 2.454 13.898 8.181 11.445 15.545-1.635 4.909-7.357 5.727-20.437 3.273-42.51-6.546-75.2098 17.181-75.2098 85.908 0 56.454 45.7797 83.454 76.0268 80.181 13.08-1.636 19.62-1.636 22.073 4.091 3.269 6.545-.818 10.636-8.993 13.909-25.342 11.454-35.1522 35.182-34.3347 63 1.635 55.635 42.5097 80.181 83.3847 82.635 44.962 2.455 90.742-21.272 105.456-57.272-68.669 0-99.734-105.545-98.916-182.453 0-45 25.342-199.6349 126.711-190.6349zm49.867 316.6339c-13.897-4.091-26.977-9.818-39.239-18-14.715 3.273-37.605 2.455-52.32.818 8.175 26.182 24.525 53.182 51.502 53.182 15.533 0 35.97-17.182 40.057-36zm-210.096-131.726c-17.167 16.363-21.254 20.454-36.787 38.454h-2.452c-15.5327-18-19.6202-22.091-36.7875-38.454v-3.273c17.9848-15.545 21.2548-19.636 36.7875-37.636h2.452c15.533 18 19.62 22.091 36.787 38.454zm55.59 175.907c-15.532 18-19.62 22.091-33.517 40.909h-2.453c-17.167-16.363-21.255-20.454-40.057-36v-2.454c16.35-17.182 20.437-21.273 34.335-40.091l2.452-.818c16.35 17.182 21.255 21.273 39.24 36zm9.81-350.997c-18.802 14.727-22.89 18.818-40.875 34.363h-2.452c-13.08-19.636-17.168-24.545-32.7-42.5446l.817-2.4545c18.803-13.909 23.708-17.1817 40.058-33.5452h3.27c13.08 19.6362 16.35 23.7271 31.882 41.7273zm147.149 42.545c-4.905-11.454-20.437-26.181-40.057-26.181-16.35 0-31.065 15.545-37.605 34.363 33.517 2.455 46.597.818 77.662-8.182zm629.471 24.546c-4.905-2.455-17.985-4.91-27.795-6.546-17.168-3.273-35.152-1.636-46.597-3.273 9.81 23.727 32.699 27.818 75.209 29.455 1.635-5.728 1.635-10.637.818-16.364z" fill="#212121"/></svg>